<?xml version="1.0" standalone="no"?>
<!DOCTYPE svg PUBLIC "-//W3C//DTD SVG 20010904//EN"
 "http://www.w3.org/TR/2001/REC-SVG-20010904/DTD/svg10.dtd">
<svg version="1.0" xmlns="http://www.w3.org/2000/svg"
 width="768.000000pt" height="432.000000pt" viewBox="0 0 768.000000 432.000000"
 preserveAspectRatio="xMidYMid meet">
<metadata>
Created by potrace 1.16, written by Peter Selinger 2001-2019
</metadata>
<g transform="translate(0.000000,432.000000) scale(0.100000,-0.100000)"
fill="#000000" stroke="none">
<path d="M380 3225 l0 -885 1630 0 1630 0 0 885 0 885 -1630 0 -1630 0 0 -885z
m2012 721 c18 -8 41 -20 51 -28 18 -13 18 -15 1 -51 -20 -43 -30 -45 -84 -17
-55 28 -114 26 -145 -5 -53 -52 -23 -97 88 -134 131 -44 170 -88 165 -187 -5
-78 -38 -133 -100 -163 -80 -38 -213 -23 -282 32 -28 23 -28 23 -12 56 23 43
39 47 80 21 104 -64 206 -40 206 50 0 33 -5 41 -32 58 -18 11 -58 27 -88 36
-117 34 -155 76 -155 171 0 89 44 147 133 176 35 11 133 3 174 -15z m-989 3
c22 -6 55 -25 74 -43 30 -27 36 -41 41 -84 6 -65 -11 -106 -55 -137 l-35 -23
37 -18 c118 -56 92 -229 -43 -281 -38 -14 -76 -18 -192 -18 l-145 0 -3 308 -2
307 142 0 c79 0 160 -5 181 -11z m617 -34 l0 -45 -134 0 -134 0 -4 -62 c-6
-113 -11 -108 108 -108 l104 0 0 -45 0 -45 -105 0 -105 0 0 -85 0 -84 133 -3
132 -3 0 -45 0 -45 -192 -3 -193 -2 0 310 0 310 195 0 195 0 0 -45z m960 -2
l0 -48 -90 3 -90 4 0 -261 c0 -167 -4 -261 -10 -262 -5 -1 -21 -1 -35 -1 -14
0 -36 0 -50 1 l-25 1 -2 258 -3 257 -75 2 c-41 0 -81 2 -87 2 -9 1 -13 17 -13
46 l0 45 240 0 240 0 0 -47z m-1725 -777 c80 -34 115 -88 115 -179 0 -124 -76
-189 -235 -202 l-85 -7 0 -104 0 -104 -55 0 -55 0 0 311 0 312 138 -5 c95 -4
150 -11 177 -22z m1355 -12 c29 -16 55 -34 57 -40 2 -6 -8 -25 -22 -43 l-26
-31 -49 25 c-90 45 -187 30 -247 -38 -89 -102 -60 -293 52 -347 59 -29 146
-25 192 8 41 29 55 28 81 -7 l21 -29 -33 -30 c-48 -42 -99 -57 -191 -56 -93 0
-134 15 -195 70 -50 45 -74 89 -90 168 -34 165 47 314 201 370 70 26 181 17
249 -20z m484 30 c11 -4 16 -19 16 -50 l0 -44 -135 0 -135 0 0 -85 0 -85 105
0 105 0 0 -45 0 -45 -105 0 -105 0 0 -85 0 -85 135 0 135 0 0 -45 0 -45 -195
0 -195 0 0 303 c0 167 3 306 6 310 8 8 347 9 368 1z m-1326 -32 c23 -13 52
-37 62 -55 24 -38 27 -122 6 -171 -14 -33 -72 -86 -94 -86 -16 0 -15 -10 1
-29 8 -9 48 -67 91 -129 l77 -113 -68 3 -68 3 -71 109 c-40 60 -78 112 -85
117 -8 5 -26 9 -41 9 l-28 0 0 -120 0 -120 -60 0 -60 0 0 306 0 306 148 -4
c129 -3 152 -6 190 -26z m320 -279 l2 -303 -60 0 -60 0 0 305 0 306 58 -3 57
-3 3 -302z m-1343 -13 l50 -5 -38 -24 c-31 -19 -37 -28 -33 -45 4 -11 9 -32
13 -45 l6 -25 -36 23 -37 23 -37 -23 -36 -23 6 25 c4 13 9 34 13 45 4 17 -2
26 -33 45 l-38 24 48 3 c26 2 50 9 52 15 3 7 10 26 16 42 l11 30 12 -40 c11
-39 13 -40 61 -45z m2655 13 c0 -9 17 -13 48 -13 l47 -1 -33 -27 c-34 -28 -39
-50 -21 -84 16 -31 4 -33 -33 -4 l-34 25 -29 -24 c-42 -34 -46 -31 -29 16 13
39 13 43 -3 55 -62 44 -62 43 -12 44 45 0 46 1 59 43 l13 42 13 -30 c7 -16 13
-36 14 -42z"/>
<path d="M1200 3785 l0 -85 78 0 c86 1 106 10 123 58 8 23 7 38 -3 59 -18 39
-53 53 -130 53 l-68 0 0 -85z"/>
<path d="M1200 3525 l0 -85 84 0 c107 0 136 18 136 85 0 67 -29 85 -136 85
l-84 0 0 -85z"/>
<path d="M1050 2953 l0 -116 71 7 c81 7 113 25 128 68 15 42 14 64 -4 98 -21
40 -47 52 -126 55 l-69 4 0 -116z"/>
<path d="M1550 2960 l0 -100 49 0 c63 0 106 16 125 45 16 25 21 80 10 110 -11
27 -60 45 -124 45 l-60 0 0 -100z"/>
<path d="M5317 4088 c-15 -12 -11 -38 49 -313 80 -366 63 -341 233 -336 78 2
121 -1 125 -8 10 -16 1132 -15 1142 0 4 8 41 10 114 7 85 -3 115 -1 141 11
l33 16 63 285 c34 157 62 297 63 311 0 16 -7 29 -16 33 -9 3 -446 6 -973 6
-750 0 -961 -3 -974 -12z m1903 -59 c0 -11 -7 -50 -15 -87 -8 -37 -30 -146
-50 -242 -20 -96 -38 -183 -41 -193 -5 -17 -29 -18 -443 -14 -477 3 -439 -1
-513 60 -12 9 -24 13 -27 8 -3 -5 -24 -12 -45 -16 -21 -4 -48 -17 -60 -29 -19
-19 -34 -21 -214 -24 -189 -4 -194 -4 -214 18 -14 15 -27 20 -42 16 -11 -3
-25 -6 -29 -6 -5 0 -5 -5 -2 -10 5 -8 11 -7 21 1 10 8 17 7 30 -6 15 -15 12
-16 -42 -13 l-58 3 -23 114 c-22 101 -23 115 -9 123 12 7 13 14 6 34 -6 14
-10 37 -10 51 0 16 -7 27 -20 30 -11 3 -20 7 -20 9 0 4 -28 142 -35 172 l-5
22 930 0 930 0 0 -21z"/>
<path d="M6300 3870 c11 -7 1 -10 -35 -10 -68 0 -81 -10 -54 -39 12 -12 22
-28 23 -34 4 -27 112 -137 136 -138 10 0 11 -2 3 -6 -37 -15 0 -23 102 -23 78
0 115 4 115 11 0 8 4 8 14 0 8 -7 35 -11 60 -9 l46 3 -31 35 c-16 19 -39 52
-50 73 -16 30 -25 37 -49 37 -22 0 -33 -7 -45 -29 -16 -33 -33 -41 -55 -31
-87 43 -89 45 -75 53 9 5 21 1 35 -13 36 -36 92 -14 60 25 -6 8 -9 19 -6 24 8
12 -60 3 -89 -12 -18 -9 -19 -9 -6 6 7 10 20 17 27 17 16 0 19 16 4 25 -6 4
-8 15 -5 26 6 18 1 19 -67 19 -51 0 -68 -3 -58 -10z"/>
<path d="M5929 3813 c-1 -5 -1 -12 0 -17 1 -5 -5 -4 -13 3 -12 10 -20 9 -44
-3 -45 -23 -57 -42 -44 -71 11 -24 41 -33 56 -17 10 9 56 10 56 0 0 -4 8 -5
18 -1 9 3 14 2 9 -2 -4 -5 14 -19 40 -33 l48 -24 -87 5 c-49 3 -88 3 -88 1 0
-15 69 -34 127 -34 108 1 174 39 173 102 -1 23 -1 23 -15 -3 -8 -14 -28 -32
-45 -39 -28 -12 -33 -10 -85 29 -57 43 -72 61 -32 39 12 -7 26 -11 30 -10 5 1
6 -2 2 -8 -3 -5 1 -10 9 -10 9 0 16 -5 16 -12 0 -6 3 -8 6 -5 4 3 15 2 25 -4
23 -12 64 12 72 41 12 46 -58 80 -163 80 -38 0 -71 -3 -71 -7z"/>
<path d="M3826 3862 c-48 -97 -9 -213 102 -297 l47 -36 7 27 c9 35 -8 114 -29
129 -16 12 -15 51 2 48 6 0 16 -18 24 -40 12 -29 16 -112 19 -363 4 -368 5
-374 72 -385 47 -8 94 1 115 22 22 21 18 39 -3 20 -10 -10 -27 -17 -37 -17
-18 0 -18 1 1 15 19 14 19 14 -1 14 -11 0 -39 -4 -63 -8 -35 -7 -44 -5 -51 8
-5 9 -11 156 -14 326 -8 416 -19 471 -104 527 -61 39 -71 41 -87 10z"/>
<path d="M4074 3860 c-12 -5 -24 -16 -28 -25 -10 -27 -19 -181 -12 -209 8 -33
41 -47 79 -34 31 12 34 19 42 149 6 101 3 110 -40 122 -11 3 -29 2 -41 -3z"/>
<path d="M4437 3668 c-11 -43 -68 -75 -123 -69 -6 1 -18 19 -27 41 -8 22 -20
40 -27 40 -19 0 -39 -64 -46 -146 l-6 -79 40 -23 c22 -12 60 -25 85 -28 83
-12 183 53 216 139 10 27 10 27 -12 12 -29 -19 -141 -30 -131 -12 4 7 -3 3
-16 -8 l-24 -20 17 25 c29 41 69 129 64 143 -2 6 -7 0 -10 -15z"/>
<path d="M5525 3278 c-2 -7 -3 -51 -2 -98 l2 -85 128 -2 129 -2 -4 49 c-2 29
1 51 8 54 7 3 9 -14 6 -50 l-4 -54 52 0 52 0 -4 54 c-3 36 -1 53 6 50 7 -3 10
-24 8 -53 l-4 -50 102 0 102 0 -4 50 c-3 44 -1 49 17 48 11 0 14 -3 8 -6 -8
-3 -13 -23 -13 -49 l0 -44 50 0 50 0 0 44 c0 26 -5 46 -12 49 -7 3 -4 6 7 6
18 1 20 -4 17 -48 l-4 -50 102 0 102 0 -4 50 c-2 28 1 51 7 53 7 2 11 -16 10
-48 l0 -51 49 -3 48 -3 -3 50 c-3 30 0 52 7 55 7 3 9 -14 6 -50 l-4 -54 44 0
c24 0 49 5 56 12 9 9 12 9 12 0 0 -8 17 -12 46 -12 l46 0 -4 50 c-2 29 1 50 7
50 6 0 9 -21 7 -50 l-4 -50 52 0 52 0 -4 50 c-2 29 1 50 7 50 6 0 9 -21 6 -51
l-3 -50 48 3 49 3 3 39 c2 24 -2 42 -10 47 -10 7 -9 9 5 9 14 0 17 -9 17 -50
l0 -50 45 0 45 0 -1 83 c0 45 1 89 3 97 2 12 -12 16 -74 18 l-78 3 0 -45 c0
-26 5 -46 13 -49 6 -3 3 -6 -8 -6 -18 -1 -20 4 -17 48 l4 50 -101 0 -101 0 0
-44 c0 -25 5 -45 13 -48 6 -3 3 -6 -8 -6 -18 -1 -20 4 -17 49 l4 50 -52 0 -52
0 4 -50 c2 -29 -1 -50 -7 -50 -6 0 -9 21 -7 49 l4 50 -102 0 -102 0 4 -50 c2
-28 -1 -49 -7 -49 -6 0 -9 21 -7 50 l4 50 -52 0 -52 0 4 -50 c2 -29 -1 -50 -7
-50 -6 0 -9 21 -7 49 l4 50 -102 0 -102 0 4 -50 c2 -28 -1 -49 -7 -49 -6 0 -9
21 -7 50 l4 50 -52 0 -52 0 4 -50 c2 -29 -1 -50 -7 -50 -6 0 -9 21 -7 49 l4
50 -102 0 -102 0 4 -50 c2 -28 -1 -49 -7 -49 -6 0 -9 21 -7 50 l4 50 -52 0
-52 0 4 -50 c2 -29 -1 -50 -7 -50 -6 0 -9 21 -7 50 l4 50 -46 0 c-28 0 -48 -5
-51 -12z"/>
<path d="M4905 3167 c-48 -30 -91 -60 -96 -69 -13 -23 0 -54 28 -67 22 -10 31
-8 67 14 22 14 66 40 96 58 64 39 77 74 38 101 -12 9 -27 16 -34 16 -6 0 -50
-24 -99 -53z"/>
<path d="M5527 3073 c-4 -3 -7 -24 -7 -45 l0 -38 90 0 90 0 0 45 0 45 -83 0
c-46 0 -87 -3 -90 -7z"/>
<path d="M5820 3034 l0 -44 100 0 100 0 0 44 0 45 -100 0 -100 0 0 -45z"/>
<path d="M6140 3035 l0 -44 100 0 100 0 0 44 0 44 -100 0 -100 0 0 -44z"/>
<path d="M6890 3035 l0 -45 85 0 85 0 0 45 0 45 -85 0 -85 0 0 -45z"/>
<path d="M5524 2966 c-3 -8 -4 -29 -2 -48 l3 -33 168 -2 167 -2 0 50 0 49 -44
0 c-26 0 -47 -5 -50 -12 -5 -10 -7 -10 -12 0 -9 18 -223 17 -230 -2z"/>
<path d="M5980 2931 l0 -50 100 0 100 0 0 50 0 49 -45 0 c-28 0 -45 -4 -45
-12 0 -9 -3 -9 -12 0 -7 7 -31 12 -55 12 l-43 0 0 -49z"/>
<path d="M6300 2931 l0 -50 100 0 100 0 0 50 0 49 -45 0 -45 0 -1 -42 -2 -43
-6 40 c-6 40 -6 40 -53 43 l-48 3 0 -50z"/>
<path d="M6834 2966 c-3 -8 -4 -29 -2 -48 l3 -33 113 -3 112 -3 0 51 0 50
-110 0 c-86 0 -112 -3 -116 -14z"/>
<path d="M5076 2938 c-9 -12 -16 -19 -16 -15 0 4 -9 -2 -20 -13 -44 -44 -227
-101 -280 -87 -17 4 -20 0 -20 -24 0 -50 -72 -79 -163 -65 -38 6 -47 12 -72
53 -85 133 -178 163 -177 55 1 -69 52 -149 122 -190 66 -39 140 -37 209 6 29
17 59 32 67 32 12 0 14 -32 16 -187 1 -104 3 -164 5 -134 2 29 10 63 18 75 7
11 23 46 35 77 29 80 97 182 115 175 10 -3 15 1 15 13 0 34 11 50 61 87 53 39
82 74 104 128 17 40 5 48 -19 14z"/>
<path d="M5740 2826 l0 -44 115 -1 115 0 0 44 0 45 -64 0 c-42 0 -66 -4 -69
-12 -4 -10 -6 -10 -6 0 -1 8 -17 12 -46 12 l-45 0 0 -44z"/>
<path d="M5980 2825 l0 -45 260 0 260 0 0 45 0 45 -260 0 -260 0 0 -45z"/>
<path d="M440 2221 c-14 -27 -12 -133 3 -151 9 -11 29 -14 85 -12 81 4 89 11
92 77 3 59 2 63 -18 83 -25 25 -82 18 -82 -10 0 -17 -2 -16 -24 6 -28 31 -42
33 -56 7z"/>
<path d="M5170 2141 c-19 -10 -44 -34 -55 -52 -20 -33 -20 -52 -20 -889 l0
-855 23 -36 c33 -55 79 -72 203 -77 67 -3 113 0 125 6 18 11 18 11 -2 12 -12
0 -33 9 -48 21 -59 46 -56 3 -57 926 -1 556 2 857 9 873 12 31 49 65 82 79 19
7 -6 10 -100 10 -104 1 -131 -2 -160 -18z"/>
<path d="M6119 2137 c-19 -12 -42 -39 -52 -60 -18 -36 -19 -80 -18 -883 2
-919 -1 -878 57 -923 17 -13 21 -22 13 -22 -45 -5 104 -17 201 -17 99 0 111 1
84 11 -17 7 -43 21 -58 32 -56 42 -55 31 -57 928 -1 801 -1 825 18 868 22 48
47 74 78 82 11 2 -37 5 -106 6 -115 1 -129 -1 -160 -22z"/>
<path d="M6606 2119 c-58 -45 -56 -17 -56 -919 0 -902 -2 -874 56 -919 27 -22
29 -22 415 -19 371 3 388 4 409 23 51 45 50 26 50 907 0 514 -4 836 -10 859
-6 19 -22 46 -36 60 l-26 24 -387 3 c-386 3 -388 3 -415 -19z m174 -43 c0 -8
7 -22 16 -30 13 -14 47 -16 220 -16 l205 0 17 30 c16 28 21 30 78 30 52 0 64
-4 84 -25 l24 -26 3 -757 c1 -592 -1 -753 -10 -738 -70 108 -123 148 -233 176
-150 39 -325 19 -421 -47 -56 -38 -90 -76 -135 -152 l-28 -46 0 767 c0 509 4
776 10 795 16 42 38 53 107 53 48 0 63 -3 63 -14z m687 -1284 c-1 -224 -2 -40
-2 408 0 448 1 632 2 407 2 -224 2 -590 0 -815z m-294 -108 c95 -21 171 -69
181 -114 1 -3 9 -16 18 -30 27 -40 49 -140 36 -163 -7 -14 -7 -17 1 -13 16 10
13 2 -8 -22 -10 -12 -21 -19 -25 -15 -3 3 -6 1 -6 -5 0 -9 -73 -12 -280 -12
-243 0 -284 2 -306 16 -19 13 -39 16 -89 11 -67 -6 -78 -1 -80 35 -1 10 2 18
7 18 5 0 7 4 4 9 -7 10 22 72 38 83 8 5 7 8 -1 8 -9 0 -7 6 5 19 9 11 39 44
66 75 26 31 54 56 62 56 7 0 17 6 21 13 28 44 221 61 356 31z"/>
<path d="M6805 1119 c-22 -5 -69 -12 -105 -16 -48 -6 -65 -12 -65 -23 0 -8 -4
-18 -10 -22 -6 -5 -5 -8 3 -8 6 0 11 -3 10 -7 -1 -5 2 -26 7 -48 4 -22 7 -46
6 -54 -1 -8 2 -10 10 -5 9 5 10 2 6 -9 -3 -10 -3 -17 2 -17 5 0 14 -13 21 -29
20 -50 45 -53 312 -49 259 5 282 9 340 60 28 25 62 86 72 130 5 22 1 31 -19
44 -32 21 -193 33 -205 15 -4 -7 -25 -14 -46 -15 -22 -1 -50 -8 -63 -15 -27
-15 -113 -9 -119 8 -2 6 -10 11 -18 11 -8 0 -14 4 -14 9 0 8 -76 53 -83 50 -1
-1 -20 -5 -42 -10z"/>
<path d="M3360 1919 c-125 -8 -140 -11 -205 -43 -81 -40 -157 -113 -209 -200
-31 -51 -43 -62 -92 -82 -76 -31 -101 -56 -114 -118 -16 -74 -14 -725 2 -791
11 -39 22 -56 57 -82 46 -36 81 -79 104 -129 37 -80 127 -148 247 -187 61 -20
111 -27 265 -36 190 -11 212 -11 293 9 71 17 183 80 143 80 -6 0 -11 -5 -11
-11 0 -5 -5 -7 -11 -4 -6 5 -3 13 10 22 12 8 26 11 31 8 6 -3 10 3 10 14 0 19
2 18 28 -6 30 -28 97 -64 155 -82 43 -14 385 -38 437 -31 30 4 26 6 -35 18
-39 7 -71 17 -73 22 -2 5 -9 7 -16 4 -8 -3 -21 2 -29 11 -9 9 -18 14 -19 13
-2 -2 -21 10 -43 26 -55 39 -105 107 -105 140 0 37 22 29 32 -11 10 -40 86
-108 156 -141 49 -23 70 -27 147 -27 68 0 98 5 125 19 45 24 119 79 120 88 0
5 -20 -8 -45 -27 -59 -44 -113 -59 -196 -52 -79 7 -126 30 -190 92 -42 41 -47
51 -53 105 -5 47 -3 65 10 85 9 14 12 25 6 25 -10 0 -37 -26 -71 -70 -18 -24
-25 -25 -138 -28 -130 -4 -319 10 -333 24 -6 6 69 8 188 6 l198 -4 30 25 c22
18 34 23 46 16 10 -5 19 -6 22 0 3 5 -4 11 -15 14 -12 3 -18 10 -15 16 13 21
8 786 -5 814 -25 55 -42 59 -245 52 -102 -3 -188 -6 -192 -6 -4 -1 -16 -1 -27
0 -17 1 -18 3 -5 11 8 6 31 14 50 20 25 7 41 20 55 47 11 20 39 61 63 92 23
30 42 59 42 64 0 10 -95 106 -138 140 -13 10 -27 15 -33 12 -5 -4 -8 -1 -7 6
5 19 -89 39 -182 37 -47 0 -146 -5 -220 -9z m146 -197 c52 -72 87 -140 115
-227 20 -64 22 -86 23 -441 0 -205 -2 -366 -5 -357 -4 12 -8 13 -13 4 -4 -6
-5 -19 -2 -27 3 -8 2 -13 -3 -10 -11 7 -43 -83 -34 -97 3 -6 1 -7 -5 -3 -7 4
-12 3 -12 -2 0 -5 -8 -18 -18 -30 -20 -23 -47 -59 -63 -82 -8 -12 -15 -9 -43
22 -18 21 -38 55 -45 77 -11 37 -9 45 16 93 l28 53 3 253 c4 252 4 253 28 277
34 35 34 107 -1 139 -14 13 -25 30 -25 39 0 9 -5 40 -11 69 -9 42 -21 62 -56
96 l-44 43 27 48 c28 52 81 121 92 120 4 0 26 -26 48 -57z m544 -304 c66 -45
105 -167 80 -256 -10 -39 -13 -42 -28 -30 -15 12 -16 11 -3 -5 12 -15 12 -21
0 -44 -35 -66 -130 -92 -193 -54 -36 23 -70 76 -60 93 4 7 3 8 -4 4 -7 -4 -12
-5 -12 -3 0 2 -4 28 -10 56 -6 35 -6 68 1 102 10 44 13 48 27 37 15 -12 15
-11 4 4 -9 12 -10 22 -4 35 13 23 62 69 82 76 35 13 89 6 120 -15z"/>
<path d="M1425 1800 c-473 -3 -861 -6 -862 -8 -1 -1 -9 -15 -18 -32 -13 -26
-15 -117 -13 -749 2 -395 0 -717 -4 -714 -13 7 -9 -11 8 -35 l15 -22 970 0
c1059 0 1017 -2 1039 56 16 41 13 1433 -3 1464 -18 36 -68 49 -177 47 -52 -1
-482 -4 -955 -7z m37 -112 c-4 -56 -13 -73 -39 -73 -10 0 -18 -11 -20 -30 -5
-36 -6 -38 -40 -41 -31 -3 -63 11 -63 29 0 26 -21 87 -30 87 -6 0 -10 -13 -10
-30 0 -16 -4 -30 -10 -30 -5 0 -10 5 -10 12 0 6 -3 9 -6 5 -4 -3 -18 0 -33 8
-27 14 -50 47 -55 79 -1 10 -9 22 -17 27 -9 5 53 9 161 9 l175 0 -3 -52z m205
32 c-9 -15 -8 -27 1 -54 12 -32 11 -37 -8 -56 -11 -11 -20 -33 -20 -48 0 -17
-10 -38 -24 -51 -14 -13 -22 -29 -20 -36 8 -20 58 -3 62 21 2 10 11 25 20 32
9 7 17 18 18 25 0 7 2 20 2 30 2 21 28 23 36 2 3 -8 10 -15 16 -15 5 0 10 7
10 15 0 8 7 15 16 15 8 0 13 -4 9 -9 -3 -5 -1 -12 4 -16 15 -9 1 -35 -41 -76
-21 -20 -38 -46 -38 -57 0 -11 -6 -22 -14 -25 -21 -8 -81 -122 -100 -188 -9
-31 -22 -62 -30 -68 -15 -12 -20 -121 -6 -121 4 0 15 9 25 20 10 11 24 20 30
20 15 0 68 -66 75 -95 10 -35 37 -30 50 10 6 19 20 40 30 45 17 9 17 7 7 -20
-14 -38 -3 -49 26 -23 47 43 94 51 51 9 -8 -9 -11 -16 -5 -16 6 0 11 -4 11
-10 0 -5 -20 -10 -44 -10 -59 0 -121 -36 -121 -70 0 -20 -7 -26 -37 -35 -45
-12 -57 -23 -38 -35 12 -8 9 -10 -10 -11 -42 -2 -63 2 -77 17 -16 16 -24 17
-48 8 -14 -6 -14 -9 0 -30 9 -13 20 -36 25 -52 l10 -27 -24 29 c-14 17 -23 33
-20 37 2 4 -3 9 -11 13 -16 6 -45 -29 -45 -54 0 -9 -7 -25 -15 -36 -21 -28
-18 -37 10 -30 30 8 106 -21 99 -38 -3 -9 -19 -10 -57 -5 -29 3 -56 4 -60 2
-5 -3 -7 3 -5 13 6 35 -39 29 -77 -9 -39 -39 -42 -63 -26 -202 13 -115 -26
-178 -80 -129 -11 10 -23 13 -31 8 -9 -6 -6 -10 12 -15 17 -5 4 -7 -38 -8
l-63 -1 3 28 c3 25 6 27 48 27 36 1 45 4 45 19 0 9 -12 25 -27 34 -27 16 -29
16 -43 -5 -9 -12 -23 -30 -33 -39 -9 -10 -22 -27 -27 -38 -6 -12 -22 -22 -38
-24 -22 -3 -26 0 -20 15 23 65 169 242 200 242 18 1 23 -6 29 -47 5 -26 8 -49
7 -52 0 -3 -3 -18 -7 -33 -5 -21 -3 -28 6 -25 7 3 13 26 15 59 2 30 8 66 13
82 5 17 5 27 -1 27 -5 0 -9 9 -9 20 0 11 6 20 13 20 8 0 12 15 11 42 -2 53
-22 57 -38 10 -7 -19 -19 -38 -29 -43 -9 -6 -17 -9 -18 -7 0 2 -1 39 -2 83 -3
88 -9 105 -38 105 -23 0 -25 13 -3 31 12 10 25 10 54 2 22 -5 37 -6 34 -1 -3
4 2 11 10 14 10 4 16 18 16 36 0 16 4 27 9 23 11 -6 25 31 17 44 -4 5 2 12 11
15 30 9 46 74 53 211 3 72 7 122 8 113 3 -24 32 -23 32 1 0 10 7 24 15 31 8 7
15 21 15 31 0 9 7 25 16 34 13 12 15 26 9 61 -5 36 -4 45 7 42 16 -6 22 -136
8 -187 -12 -44 -4 -53 21 -22 11 14 19 39 19 62 0 21 4 39 9 39 12 0 32 83 36
152 4 55 -6 145 -20 180 -6 14 3 16 74 16 76 0 80 -1 68 -18z"/>
<path d="M4477 1779 c10 -12 8 -15 -6 -16 -38 -3 -101 -24 -116 -39 -14 -15
-12 -20 20 -57 55 -64 54 -63 90 -142 44 -96 63 -160 80 -273 16 -105 17 -380
1 -400 -7 -10 -5 -16 5 -23 11 -7 11 -9 0 -9 -8 0 -11 -7 -8 -20 3 -11 1 -20
-5 -20 -5 0 -6 -9 -3 -20 4 -12 2 -20 -5 -20 -7 0 -10 -6 -7 -14 3 -7 0 -19
-6 -25 -9 -9 -8 -14 3 -21 13 -8 12 -10 -4 -10 -12 0 -16 -5 -12 -15 3 -8 1
-15 -4 -15 -6 0 -10 -9 -10 -20 0 -11 -6 -20 -12 -20 -8 0 -4 -8 7 -17 16 -12
16 -14 3 -10 -22 8 -35 -12 -17 -24 10 -6 8 -9 -9 -9 -13 0 -20 -4 -17 -10 3
-6 -1 -13 -9 -16 -9 -3 -13 -10 -10 -15 3 -5 0 -9 -6 -9 -6 0 -8 -4 -5 -10 3
-5 -1 -10 -10 -10 -9 0 -14 -4 -10 -9 3 -5 -3 -12 -12 -14 -15 -4 -15 -5 2 -6
15 -1 17 -3 7 -10 -22 -14 66 -44 133 -45 33 0 50 -2 38 -4 -13 -2 -23 -7 -23
-12 0 -14 59 -1 116 26 111 52 198 219 234 448 16 101 13 366 -5 461 -59 308
-173 463 -356 482 -55 5 -62 4 -52 -8z"/>
</g>
</svg>
